<svg width="95" height="20" viewBox="0 0 95 20" fill="none" xmlns="http://www.w3.org/2000/svg">
<path d="M43.9704 7.77778H42.0993C41.7985 7.77778 41.5507 7.61222 41.4356 7.33444C41.3204 7.05667 41.3789 6.76407 41.5911 6.55148L42.9141 5.22889C43.1085 5.03444 43.2156 4.77556 43.2156 4.50074C43.2156 4.22556 43.1085 3.96704 42.9141 3.77222L41.2278 2.08593C40.8389 1.69704 40.1607 1.6963 39.7711 2.08593L38.4485 3.40852C38.2359 3.62074 37.9426 3.68 37.6656 3.56444C37.3878 3.44926 37.2222 3.20148 37.2222 2.90074V1.02963C37.2222 0.461852 36.7604 0 36.1926 0H33.8074C33.2396 0 32.7778 0.461852 32.7778 1.02963V2.90074C32.7778 3.20148 32.6122 3.44926 32.3344 3.56444C32.0574 3.68037 31.7641 3.62074 31.5515 3.40852L30.2289 2.08593C29.8393 1.6963 29.1611 1.69704 28.7722 2.08593L27.0859 3.77222C26.8915 3.96667 26.7844 4.22556 26.7844 4.50074C26.7844 4.77556 26.8915 5.03407 27.0859 5.22889L28.4089 6.55148C28.6211 6.76407 28.6793 7.05667 28.5644 7.33444C28.4496 7.61222 28.2015 7.77778 27.9007 7.77778H26.0296C25.4619 7.77778 25 8.23963 25 8.80741V11.1922C25 11.7604 25.4619 12.2222 26.0296 12.2222H27.9007C28.2015 12.2222 28.4493 12.3878 28.5644 12.6656C28.6796 12.9433 28.6211 13.2359 28.4089 13.4485L27.0859 14.7711C26.8915 14.9656 26.7844 15.2244 26.7844 15.4993C26.7844 15.7744 26.8915 16.033 27.0859 16.2278L28.7722 17.9141C29.1615 18.3033 29.8393 18.3041 30.2289 17.9141L31.5515 16.5911C31.7641 16.3789 32.0563 16.3204 32.3344 16.4356C32.6122 16.5507 32.7778 16.7985 32.7778 17.0993V18.9704C32.7778 19.5381 33.2396 20 33.8074 20H36.1922C36.76 20 37.2219 19.5381 37.2219 18.9704V17.0993C37.2219 16.7985 37.3874 16.5507 37.6652 16.4356C37.9433 16.32 38.2356 16.3789 38.4481 16.5911L39.7707 17.9141C40.1604 18.3037 40.8385 18.303 41.2274 17.9141L42.9137 16.2278C43.1081 16.0333 43.2152 15.7744 43.2152 15.4993C43.2152 15.2244 43.1081 14.9659 42.9137 14.7711L41.5907 13.4485C41.3785 13.2359 41.3204 12.9433 41.4352 12.6656C41.55 12.3878 41.7985 12.2222 42.0993 12.2222H43.9704C44.5381 12.2222 45 11.7604 45 11.1926V8.80741C45 8.23963 44.5381 7.77778 43.9704 7.77778ZM44.2593 11.1926C44.2593 11.3519 44.1296 11.4815 43.9704 11.4815H42.0993C41.4978 11.4815 40.9811 11.8267 40.7511 12.3822C40.5207 12.9378 40.6419 13.5474 41.0674 13.9726L42.3904 15.2952C42.5033 15.4081 42.5033 15.5915 42.3904 15.7041L40.7041 17.3904C40.5915 17.503 40.4081 17.5037 40.2952 17.3904L38.9726 16.0674C38.547 15.6419 37.9378 15.5215 37.3822 15.7511C36.8267 15.9811 36.4815 16.4978 36.4815 17.0993V18.9704C36.4815 19.1296 36.3519 19.2593 36.1926 19.2593H33.8074C33.6481 19.2593 33.5185 19.1296 33.5185 18.9704V17.0993C33.5185 16.4978 33.1733 15.9811 32.6178 15.7511C32.4315 15.6737 32.2396 15.6359 32.05 15.6359C31.6744 15.6359 31.3104 15.7841 31.0274 16.067L29.7048 17.39C29.5915 17.5033 29.4081 17.5026 29.2959 17.39L27.6096 15.7037C27.4967 15.5907 27.4967 15.4074 27.6096 15.2948L28.9326 13.9722C29.3578 13.547 29.4793 12.9374 29.2489 12.3819C29.0189 11.8267 28.5022 11.4815 27.9007 11.4815H26.0296C25.8704 11.4815 25.7407 11.3519 25.7407 11.1926V8.80741C25.7407 8.64815 25.8704 8.51852 26.0296 8.51852H27.9007C28.5022 8.51852 29.0189 8.17333 29.2489 7.61778C29.4793 7.06222 29.3581 6.45259 28.9326 6.02741L27.6096 4.70481C27.4967 4.59185 27.4967 4.40852 27.6096 4.29593L29.2959 2.60963C29.4085 2.49667 29.5919 2.49667 29.7048 2.60963L31.0274 3.93222C31.4522 4.35704 32.0615 4.47889 32.6178 4.24852C33.1733 4.01889 33.5185 3.50222 33.5185 2.90074V1.02963C33.5185 0.87037 33.6481 0.740741 33.8074 0.740741H36.1922C36.3519 0.740741 36.4815 0.87037 36.4815 1.02963V2.90074C36.4815 3.50222 36.8267 4.01889 37.3822 4.24889C37.9385 4.47926 38.5474 4.35778 38.9726 3.93259L40.2952 2.61C40.4085 2.49704 40.5919 2.49704 40.7041 2.61L42.3904 4.2963C42.5033 4.40926 42.5033 4.59259 42.3904 4.70519L41.0674 6.02778C40.6422 6.45296 40.5207 7.06259 40.7511 7.61815C40.9811 8.1737 41.4978 8.51889 42.0993 8.51889H43.9704C44.1296 8.51852 44.2593 8.64815 44.2593 8.80741V11.1926Z" fill="white"/>
<path d="M35 6.66675C33.1618 6.66675 31.6667 8.16193 31.6667 10.0001C31.6667 11.8382 33.1618 13.3334 35 13.3334C36.8381 13.3334 38.3333 11.8382 38.3333 10.0001C38.3333 8.16193 36.8381 6.66675 35 6.66675ZM35 12.5927C33.5707 12.5927 32.4074 11.4293 32.4074 10.0001C32.4074 8.57082 33.5707 7.40749 35 7.40749C36.4292 7.40749 37.5926 8.57082 37.5926 10.0001C37.5926 11.4293 36.4292 12.5927 35 12.5927Z" fill="white"/>
<path d="M2.85714 14.2856C1.28179 14.2856 0 15.5674 0 17.1428C0 18.7181 1.28179 19.9999 2.85714 19.9999C4.4325 19.9999 5.71429 18.7181 5.71429 17.1428C5.71429 15.5674 4.4325 14.2856 2.85714 14.2856ZM2.85714 19.2856C1.67536 19.2856 0.714286 18.3246 0.714286 17.1428C0.714286 15.961 1.67536 14.9999 2.85714 14.9999C4.03893 14.9999 5 15.961 5 17.1428C5 18.3246 4.03893 19.2856 2.85714 19.2856Z" fill="white"/>
<path d="M9.99999 14.2856C8.42464 14.2856 7.14285 15.5674 7.14285 17.1428C7.14285 18.7181 8.42464 19.9999 9.99999 19.9999C11.5753 19.9999 12.8571 18.7181 12.8571 17.1428C12.8571 15.5674 11.5753 14.2856 9.99999 14.2856ZM9.99999 19.2856C8.81821 19.2856 7.85714 18.3246 7.85714 17.1428C7.85714 15.961 8.81821 14.9999 9.99999 14.9999C11.1818 14.9999 12.1428 15.961 12.1428 17.1428C12.1428 18.3246 11.1818 19.2856 9.99999 19.2856Z" fill="white"/>
<path d="M17.1429 14.2856C15.5675 14.2856 14.2857 15.5674 14.2857 17.1428C14.2857 18.7181 15.5675 19.9999 17.1429 19.9999C18.7182 19.9999 20 18.7181 20 17.1428C20 15.5674 18.7182 14.2856 17.1429 14.2856ZM17.1429 19.2856C15.9611 19.2856 15 18.3246 15 17.1428C15 15.961 15.9611 14.9999 17.1429 14.9999C18.3247 14.9999 19.2857 15.961 19.2857 17.1428C19.2857 18.3246 18.3247 19.2856 17.1429 19.2856Z" fill="white"/>
<path d="M2.85714 7.14282C1.28179 7.14282 0 8.42461 0 9.99997C0 11.5753 1.28179 12.8571 2.85714 12.8571C4.4325 12.8571 5.71429 11.5753 5.71429 9.99997C5.71429 8.42461 4.4325 7.14282 2.85714 7.14282ZM2.85714 12.1428C1.67536 12.1428 0.714286 11.1818 0.714286 9.99997C0.714286 8.81818 1.67536 7.85711 2.85714 7.85711C4.03893 7.85711 5 8.81818 5 9.99997C5 11.1818 4.03893 12.1428 2.85714 12.1428Z" fill="white"/>
<path d="M9.99999 7.14282C8.42464 7.14282 7.14285 8.42461 7.14285 9.99997C7.14285 11.5753 8.42464 12.8571 9.99999 12.8571C11.5753 12.8571 12.8571 11.5753 12.8571 9.99997C12.8571 8.42461 11.5753 7.14282 9.99999 7.14282ZM9.99999 12.1428C8.81821 12.1428 7.85714 11.1818 7.85714 9.99997C7.85714 8.81818 8.81821 7.85711 9.99999 7.85711C11.1818 7.85711 12.1428 8.81818 12.1428 9.99997C12.1428 11.1818 11.1818 12.1428 9.99999 12.1428Z" fill="white"/>
<path d="M17.1429 7.14282C15.5675 7.14282 14.2857 8.42461 14.2857 9.99997C14.2857 11.5753 15.5675 12.8571 17.1429 12.8571C18.7182 12.8571 20 11.5753 20 9.99997C20 8.42461 18.7182 7.14282 17.1429 7.14282ZM17.1429 12.1428C15.9611 12.1428 15 11.1818 15 9.99997C15 8.81818 15.9611 7.85711 17.1429 7.85711C18.3247 7.85711 19.2857 8.81818 19.2857 9.99997C19.2857 11.1818 18.3247 12.1428 17.1429 12.1428Z" fill="white"/>
<path d="M2.85714 0C1.28179 0 0 1.28179 0 2.85714C0 4.4325 1.28179 5.71429 2.85714 5.71429C4.4325 5.71429 5.71429 4.4325 5.71429 2.85714C5.71429 1.28179 4.4325 0 2.85714 0ZM2.85714 5C1.67536 5 0.714286 4.03893 0.714286 2.85714C0.714286 1.67536 1.67536 0.714286 2.85714 0.714286C4.03893 0.714286 5 1.67536 5 2.85714C5 4.03893 4.03893 5 2.85714 5Z" fill="white"/>
<path d="M9.99999 0C8.42464 0 7.14285 1.28179 7.14285 2.85714C7.14285 4.4325 8.42464 5.71429 9.99999 5.71429C11.5753 5.71429 12.8571 4.4325 12.8571 2.85714C12.8571 1.28179 11.5753 0 9.99999 0ZM9.99999 5C8.81821 5 7.85714 4.03893 7.85714 2.85714C7.85714 1.67536 8.81821 0.714286 9.99999 0.714286C11.1818 0.714286 12.1428 1.67536 12.1428 2.85714C12.1428 4.03893 11.1818 5 9.99999 5Z" fill="white"/>
<path d="M17.1429 5.71429C18.7182 5.71429 20 4.4325 20 2.85714C20 1.28179 18.7182 0 17.1429 0C15.5675 0 14.2857 1.28179 14.2857 2.85714C14.2857 4.4325 15.5675 5.71429 17.1429 5.71429ZM17.1429 0.714286C18.3247 0.714286 19.2857 1.67536 19.2857 2.85714C19.2857 4.03893 18.3247 5 17.1429 5C15.9611 5 15 4.03893 15 2.85714C15 1.67536 15.9611 0.714286 17.1429 0.714286Z" fill="white"/>
<g clip-path="url(#clip0)">
<path d="M90.8081 5.80811L89.9243 6.69189L92.6074 9.375H83.75V10.625H92.6074L89.9243 13.3081L90.8081 14.1919L95 10L90.8081 5.80811Z" fill="white"/>
<path d="M90.0833 18.75H77.5834V1.25001H90.0833V2.50003H91.3334V0.625007C91.3334 0.279535 91.0538 0 90.7084 0H76.9584C76.6129 0 76.3333 0.279535 76.3333 0.625007V19.375C76.3333 19.7205 76.6129 20 76.9584 20H90.7084C91.0538 20 91.3334 19.7205 91.3334 19.375V17.5H90.0833V18.75Z" fill="white"/>
</g>
<path d="M65.5366 3.06164C65.8032 3.06164 66.0193 2.84551 66.0193 2.57891V1.05574C66.0193 0.473633 65.546 0 64.9641 0H54.7516C54.6236 0 54.5009 0.0508984 54.4103 0.141406L50.4112 4.14043C50.3207 4.23094 50.2698 4.35375 50.2698 4.48176V18.9442C50.2699 19.5264 50.7435 20 51.3256 20H64.9641C65.546 20 66.0193 19.5264 66.0193 18.9443V11.5738C66.0193 11.3072 65.8032 11.0911 65.5366 11.0911C65.27 11.0911 65.0539 11.3072 65.0539 11.5738V18.9443C65.0539 18.994 65.0136 19.0345 64.9641 19.0345H51.3257C51.2759 19.0345 51.2354 18.994 51.2354 18.9443V4.96457H54.1791C54.7611 4.96457 55.2344 4.49113 55.2344 3.90922V0.965469H64.9641C65.0136 0.965469 65.0538 1.00598 65.0538 1.05574V2.57891C65.0538 2.84551 65.27 3.06164 65.5366 3.06164ZM54.269 3.90918C54.269 3.95875 54.2287 3.99906 54.1791 3.99906H51.9183L54.269 1.64828V3.90918Z" fill="white"/>
<path d="M69.2526 3.92178L68.6845 3.35385C68.0477 2.71697 67.0114 2.71705 66.3745 3.35385L61.8658 7.86256H54.0453C53.7787 7.86256 53.5626 8.07869 53.5626 8.34529C53.5626 8.61189 53.7787 8.82803 54.0453 8.82803H60.9003L57.9949 11.7335H54.0453C53.7787 11.7335 53.5626 11.9496 53.5626 12.2162C53.5626 12.4828 53.7787 12.6989 54.0453 12.6989H57.0294L57.0216 12.7067C56.9627 12.7656 56.9201 12.8387 56.8978 12.9189L56.1522 15.6044H54.0453C53.7787 15.6044 53.5626 15.8205 53.5626 16.0871C53.5626 16.3537 53.7787 16.5698 54.0453 16.5698H56.5192C56.5192 16.5698 56.625 16.5579 56.6406 16.5538C56.6431 16.5531 59.6873 15.7084 59.6873 15.7084C59.7676 15.6862 59.8407 15.6435 59.8995 15.5846L69.2526 6.2317C69.8894 5.5949 69.8894 4.55865 69.2526 3.92178ZM57.2127 15.3935L57.6067 13.9746L58.6317 14.9996L57.2127 15.3935ZM59.5582 14.5607L58.0457 13.0481L65.7663 5.32752L67.2789 6.84006L59.5582 14.5607ZM68.5698 5.54904L67.9616 6.15729L66.449 4.64471L67.0572 4.03646C67.3177 3.776 67.7415 3.77604 68.0018 4.03646L68.5698 4.60447C68.8302 4.8649 68.8302 5.28865 68.5698 5.54904Z" fill="white"/>
<defs>
<clipPath id="clip0">
<rect width="20" height="20" fill="white" transform="translate(75)"/>
</clipPath>
</defs>
</svg>
