<svg width="130" height="25" viewBox="0 0 130 25" fill="none" xmlns="http://www.w3.org/2000/svg">
<path d="M58.713 9.72222H56.3741C55.9981 9.72222 55.6884 9.51528 55.5444 9.16806C55.4005 8.82083 55.4736 8.45509 55.7389 8.18935L57.3926 6.53611C57.6356 6.29306 57.7694 5.96944 57.7694 5.62593C57.7694 5.28194 57.6356 4.9588 57.3926 4.71528L55.2847 2.60741C54.7986 2.1213 53.9509 2.12037 53.4639 2.60741L51.8106 4.26065C51.5449 4.52593 51.1782 4.6 50.8319 4.45556C50.4847 4.31157 50.2778 4.00185 50.2778 3.62593V1.28704C50.2778 0.577315 49.7005 0 48.9907 0H46.0093C45.2995 0 44.7222 0.577315 44.7222 1.28704V3.62593C44.7222 4.00185 44.5153 4.31157 44.1681 4.45556C43.8218 4.60046 43.4551 4.52593 43.1894 4.26065L41.5361 2.60741C41.0491 2.12037 40.2014 2.1213 39.7153 2.60741L37.6074 4.71528C37.3644 4.95833 37.2306 5.28194 37.2306 5.62593C37.2306 5.96944 37.3644 6.29259 37.6074 6.53611L39.2611 8.18935C39.5264 8.45509 39.5991 8.82083 39.4556 9.16806C39.312 9.51528 39.0019 9.72222 38.6259 9.72222H36.287C35.5773 9.72222 35 10.2995 35 11.0093V13.9903C35 14.7005 35.5773 15.2778 36.287 15.2778H38.6259C39.0019 15.2778 39.3116 15.4847 39.4556 15.8319C39.5995 16.1792 39.5264 16.5449 39.2611 16.8106L37.6074 18.4639C37.3644 18.7069 37.2306 19.0306 37.2306 19.3741C37.2306 19.7181 37.3644 20.0412 37.6074 20.2847L39.7153 22.3926C40.2019 22.8792 41.0491 22.8801 41.5361 22.3926L43.1894 20.7389C43.4551 20.4736 43.8204 20.4005 44.1681 20.5444C44.5153 20.6884 44.7222 20.9981 44.7222 21.3741V23.713C44.7222 24.4227 45.2995 25 46.0093 25H48.9903C49.7 25 50.2773 24.4227 50.2773 23.713V21.3741C50.2773 20.9981 50.4843 20.6884 50.8315 20.5444C51.1792 20.4 51.5444 20.4736 51.8102 20.7389L53.4634 22.3926C53.9505 22.8796 54.7981 22.8787 55.2843 22.3926L57.3921 20.2847C57.6352 20.0417 57.769 19.7181 57.769 19.3741C57.769 19.0306 57.6352 18.7074 57.3921 18.4639L55.7384 16.8106C55.4731 16.5449 55.4005 16.1792 55.544 15.8319C55.6875 15.4847 55.9981 15.2778 56.3741 15.2778H58.713C59.4227 15.2778 60 14.7005 60 13.9907V11.0093C60 10.2995 59.4227 9.72222 58.713 9.72222ZM59.0741 13.9907C59.0741 14.1898 58.912 14.3519 58.713 14.3519H56.3741C55.6222 14.3519 54.9764 14.7833 54.6889 15.4778C54.4009 16.1722 54.5523 16.9343 55.0843 17.4657L56.738 19.119C56.8792 19.2602 56.8792 19.4894 56.738 19.6301L54.6301 21.738C54.4894 21.8787 54.2602 21.8796 54.119 21.738L52.4657 20.0843C51.9338 19.5523 51.1722 19.4019 50.4778 19.6889C49.7833 19.9764 49.3519 20.6222 49.3519 21.3741V23.713C49.3519 23.912 49.1898 24.0741 48.9907 24.0741H46.0093C45.8102 24.0741 45.6481 23.912 45.6481 23.713V21.3741C45.6481 20.6222 45.2167 19.9764 44.5222 19.6889C44.2894 19.5921 44.0495 19.5449 43.8125 19.5449C43.3431 19.5449 42.888 19.7301 42.5343 20.0838L40.881 21.7375C40.7394 21.8792 40.5102 21.8782 40.3699 21.7375L38.262 19.6296C38.1208 19.4884 38.1208 19.2593 38.262 19.1185L39.9157 17.4653C40.4472 16.9338 40.5991 16.1718 40.3111 15.4773C40.0236 14.7833 39.3778 14.3519 38.6259 14.3519H36.287C36.088 14.3519 35.9259 14.1898 35.9259 13.9907V11.0093C35.9259 10.8102 36.088 10.6481 36.287 10.6481H38.6259C39.3778 10.6481 40.0236 10.2167 40.3111 9.52222C40.5991 8.82778 40.4477 8.06574 39.9157 7.53426L38.262 5.88102C38.1208 5.73981 38.1208 5.51065 38.262 5.36991L40.3699 3.26204C40.5106 3.12083 40.7398 3.12083 40.881 3.26204L42.5343 4.91528C43.0653 5.4463 43.8269 5.59861 44.5222 5.31065C45.2167 5.02361 45.6481 4.37778 45.6481 3.62593V1.28704C45.6481 1.08796 45.8102 0.925926 46.0093 0.925926H48.9903C49.1898 0.925926 49.3519 1.08796 49.3519 1.28704V3.62593C49.3519 4.37778 49.7833 5.02361 50.4778 5.31111C51.1731 5.59907 51.9343 5.44722 52.4657 4.91574L54.119 3.2625C54.2606 3.1213 54.4898 3.1213 54.6301 3.2625L56.738 5.37037C56.8792 5.51157 56.8792 5.74074 56.738 5.88148L55.0843 7.53472C54.5528 8.0662 54.4009 8.82824 54.6889 9.52269C54.9764 10.2171 55.6222 10.6486 56.3741 10.6486H58.713C58.912 10.6481 59.0741 10.8102 59.0741 11.0093V13.9907Z" fill="black"/>
<path d="M47.5 8.33325C45.2023 8.33325 43.3333 10.2022 43.3333 12.4999C43.3333 14.7976 45.2023 16.6666 47.5 16.6666C49.7977 16.6666 51.6667 14.7976 51.6667 12.4999C51.6667 10.2022 49.7977 8.33325 47.5 8.33325ZM47.5 15.7407C45.7134 15.7407 44.2593 14.2865 44.2593 12.4999C44.2593 10.7133 45.7134 9.25918 47.5 9.25918C49.2866 9.25918 50.7408 10.7133 50.7408 12.4999C50.7408 14.2865 49.2866 15.7407 47.5 15.7407Z" fill="black"/>
<path d="M3.57143 17.8572C1.60223 17.8572 0 19.4594 0 21.4286C0 23.3978 1.60223 25 3.57143 25C5.54063 25 7.14286 23.3978 7.14286 21.4286C7.14286 19.4594 5.54063 17.8572 3.57143 17.8572ZM3.57143 24.1072C2.0942 24.1072 0.892857 22.9058 0.892857 21.4286C0.892857 19.9514 2.0942 18.75 3.57143 18.75C5.04866 18.75 6.25 19.9514 6.25 21.4286C6.25 22.9058 5.04866 24.1072 3.57143 24.1072Z" fill="black"/>
<path d="M12.5 17.8572C10.5308 17.8572 8.92859 19.4594 8.92859 21.4286C8.92859 23.3978 10.5308 25 12.5 25C14.4692 25 16.0714 23.3978 16.0714 21.4286C16.0714 19.4594 14.4692 17.8572 12.5 17.8572ZM12.5 24.1072C11.0228 24.1072 9.82145 22.9058 9.82145 21.4286C9.82145 19.9514 11.0228 18.75 12.5 18.75C13.9772 18.75 15.1786 19.9514 15.1786 21.4286C15.1786 22.9058 13.9772 24.1072 12.5 24.1072Z" fill="black"/>
<path d="M21.4286 17.8572C19.4594 17.8572 17.8571 19.4594 17.8571 21.4286C17.8571 23.3978 19.4594 25 21.4286 25C23.3978 25 25 23.3978 25 21.4286C25 19.4594 23.3978 17.8572 21.4286 17.8572ZM21.4286 24.1072C19.9513 24.1072 18.75 22.9058 18.75 21.4286C18.75 19.9514 19.9513 18.75 21.4286 18.75C22.9058 18.75 24.1072 19.9514 24.1072 21.4286C24.1072 22.9058 22.9058 24.1072 21.4286 24.1072Z" fill="black"/>
<path d="M3.57143 8.92847C1.60223 8.92847 0 10.5307 0 12.4999C0 14.4691 1.60223 16.0713 3.57143 16.0713C5.54063 16.0713 7.14286 14.4691 7.14286 12.4999C7.14286 10.5307 5.54063 8.92847 3.57143 8.92847ZM3.57143 15.1785C2.0942 15.1785 0.892857 13.9771 0.892857 12.4999C0.892857 11.0227 2.0942 9.82132 3.57143 9.82132C5.04866 9.82132 6.25 11.0227 6.25 12.4999C6.25 13.9771 5.04866 15.1785 3.57143 15.1785Z" fill="black"/>
<path d="M12.5 8.92847C10.5308 8.92847 8.92859 10.5307 8.92859 12.4999C8.92859 14.4691 10.5308 16.0713 12.5 16.0713C14.4692 16.0713 16.0714 14.4691 16.0714 12.4999C16.0714 10.5307 14.4692 8.92847 12.5 8.92847ZM12.5 15.1785C11.0228 15.1785 9.82145 13.9771 9.82145 12.4999C9.82145 11.0227 11.0228 9.82132 12.5 9.82132C13.9772 9.82132 15.1786 11.0227 15.1786 12.4999C15.1786 13.9771 13.9772 15.1785 12.5 15.1785Z" fill="black"/>
<path d="M21.4286 8.92847C19.4594 8.92847 17.8571 10.5307 17.8571 12.4999C17.8571 14.4691 19.4594 16.0713 21.4286 16.0713C23.3978 16.0713 25 14.4691 25 12.4999C25 10.5307 23.3978 8.92847 21.4286 8.92847ZM21.4286 15.1785C19.9513 15.1785 18.75 13.9771 18.75 12.4999C18.75 11.0227 19.9513 9.82132 21.4286 9.82132C22.9058 9.82132 24.1072 11.0227 24.1072 12.4999C24.1072 13.9771 22.9058 15.1785 21.4286 15.1785Z" fill="black"/>
<path d="M3.57143 0C1.60223 0 0 1.60223 0 3.57143C0 5.54063 1.60223 7.14286 3.57143 7.14286C5.54063 7.14286 7.14286 5.54063 7.14286 3.57143C7.14286 1.60223 5.54063 0 3.57143 0ZM3.57143 6.25C2.0942 6.25 0.892857 5.04866 0.892857 3.57143C0.892857 2.0942 2.0942 0.892857 3.57143 0.892857C5.04866 0.892857 6.25 2.0942 6.25 3.57143C6.25 5.04866 5.04866 6.25 3.57143 6.25Z" fill="black"/>
<path d="M12.5 0C10.5308 0 8.92859 1.60223 8.92859 3.57143C8.92859 5.54063 10.5308 7.14286 12.5 7.14286C14.4692 7.14286 16.0714 5.54063 16.0714 3.57143C16.0714 1.60223 14.4692 0 12.5 0ZM12.5 6.25C11.0228 6.25 9.82145 5.04866 9.82145 3.57143C9.82145 2.0942 11.0228 0.892857 12.5 0.892857C13.9772 0.892857 15.1786 2.0942 15.1786 3.57143C15.1786 5.04866 13.9772 6.25 12.5 6.25Z" fill="black"/>
<path d="M21.4286 7.14286C23.3978 7.14286 25 5.54063 25 3.57143C25 1.60223 23.3978 0 21.4286 0C19.4594 0 17.8571 1.60223 17.8571 3.57143C17.8571 5.54063 19.4594 7.14286 21.4286 7.14286ZM21.4286 0.892857C22.9058 0.892857 24.1072 2.0942 24.1072 3.57143C24.1072 5.04866 22.9058 6.25 21.4286 6.25C19.9513 6.25 18.75 5.04866 18.75 3.57143C18.75 2.0942 19.9513 0.892857 21.4286 0.892857Z" fill="black"/>
<path d="M124.76 7.26025L123.655 8.36498L127.009 11.7189H115.937V13.2814H127.009L123.655 16.6353L124.76 17.74L130 12.5001L124.76 7.26025Z" fill="black"/>
<path d="M123.854 23.4375H108.229V1.56252H123.854V3.12503H125.417V0.781258C125.417 0.349418 125.067 0 124.635 0H107.448C107.016 0 106.667 0.349418 106.667 0.781258V24.2187C106.667 24.6506 107.016 25 107.448 25H124.635C125.067 25 125.417 24.6506 125.417 24.2187V21.875H123.854V23.4375Z" fill="black"/>
<path d="M89.4207 3.82705C89.7539 3.82705 90.0241 3.55688 90.0241 3.22363V1.31968C90.0241 0.592041 89.4325 0 88.7051 0H75.9395C75.7795 0 75.626 0.063623 75.5128 0.176758L70.514 5.17554C70.4009 5.28867 70.3373 5.44219 70.3373 5.6022V23.6803C70.3373 24.408 70.9293 25 71.657 25H88.7051C89.4324 25 90.0241 24.408 90.0241 23.6803V14.4672C90.0241 14.134 89.754 13.8638 89.4207 13.8638C89.0875 13.8638 88.8173 14.134 88.8173 14.4672V23.6803C88.8173 23.7425 88.767 23.7932 88.7051 23.7932H71.6571C71.5948 23.7932 71.5442 23.7425 71.5442 23.6803V6.20571H75.2239C75.9513 6.20571 76.543 5.61392 76.543 4.88652V1.20684H88.7051C88.767 1.20684 88.8173 1.25747 88.8173 1.31968V3.22363C88.8173 3.55688 89.0875 3.82705 89.4207 3.82705ZM75.3362 4.88647C75.3362 4.94844 75.2858 4.99883 75.2239 4.99883H72.3978L75.3362 2.06035V4.88647Z" fill="black"/>
<path d="M94.0657 4.90216L93.3557 4.19225C92.5596 3.39615 91.2643 3.39625 90.4681 4.19225L84.8322 9.82814H75.0566C74.7234 9.82814 74.4532 10.0983 74.4532 10.4316C74.4532 10.7648 74.7234 11.035 75.0566 11.035H83.6253L79.9936 14.6668H75.0566C74.7234 14.6668 74.4532 14.9369 74.4532 15.2702C74.4532 15.6034 74.7234 15.8736 75.0566 15.8736H78.7867L78.777 15.8833C78.7033 15.9569 78.6501 16.0483 78.6222 16.1486L77.6902 19.5054H75.0566C74.7234 19.5054 74.4532 19.7756 74.4532 20.1088C74.4532 20.4421 74.7234 20.7122 75.0566 20.7122H78.149C78.149 20.7122 78.2813 20.6973 78.3007 20.6922C78.3039 20.6914 82.1091 19.6355 82.1091 19.6355C82.2094 19.6076 82.3008 19.5543 82.3744 19.4807L94.0657 7.78956C94.8617 6.99357 94.8617 5.69825 94.0657 4.90216ZM79.0158 19.2419L79.5084 17.4681L80.7896 18.7494L79.0158 19.2419ZM81.9478 18.2008L80.0571 16.3101L89.7079 6.65934L91.5986 8.55001L81.9478 18.2008ZM93.2123 6.93624L92.452 7.69655L90.5612 5.80582L91.3215 5.04552C91.6472 4.71993 92.1769 4.71998 92.5022 5.04552L93.2123 5.75553C93.5378 6.08107 93.5378 6.61075 93.2123 6.93624Z" fill="black"/>
</svg>
