<svg width="135" height="30" viewBox="0 0 135 30" fill="none" xmlns="http://www.w3.org/2000/svg">
<path d="M63.4556 11.6667H60.6489C60.1978 11.6667 59.8261 11.4183 59.6533 11.0017C59.4806 10.585 59.5683 10.1461 59.8867 9.82722L61.8711 7.84333C62.1628 7.55167 62.3233 7.16333 62.3233 6.75111C62.3233 6.33833 62.1628 5.95056 61.8711 5.65833L59.3417 3.12889C58.7583 2.54556 57.7411 2.54444 57.1567 3.12889L55.1728 5.11278C54.8539 5.43111 54.4139 5.52 53.9983 5.34667C53.5817 5.17389 53.3333 4.80222 53.3333 4.35111V1.54444C53.3333 0.692778 52.6406 0 51.7889 0H48.2111C47.3594 0 46.6667 0.692778 46.6667 1.54444V4.35111C46.6667 4.80222 46.4183 5.17389 46.0017 5.34667C45.5861 5.52056 45.1461 5.43111 44.8272 5.11278L42.8433 3.12889C42.2589 2.54444 41.2417 2.54556 40.6583 3.12889L38.1289 5.65833C37.8372 5.95 37.6767 6.33833 37.6767 6.75111C37.6767 7.16333 37.8372 7.55111 38.1289 7.84333L40.1133 9.82722C40.4317 10.1461 40.5189 10.585 40.3467 11.0017C40.1744 11.4183 39.8022 11.6667 39.3511 11.6667H36.5444C35.6928 11.6667 35 12.3594 35 13.2111V16.7883C35 17.6406 35.6928 18.3333 36.5444 18.3333H39.3511C39.8022 18.3333 40.1739 18.5817 40.3467 18.9983C40.5194 19.415 40.4317 19.8539 40.1133 20.1728L38.1289 22.1567C37.8372 22.4483 37.6767 22.8367 37.6767 23.2489C37.6767 23.6617 37.8372 24.0494 38.1289 24.3417L40.6583 26.8711C41.2422 27.455 42.2589 27.4561 42.8433 26.8711L44.8272 24.8867C45.1461 24.5683 45.5844 24.4806 46.0017 24.6533C46.4183 24.8261 46.6667 25.1978 46.6667 25.6489V28.4556C46.6667 29.3072 47.3594 30 48.2111 30H51.7883C52.64 30 53.3328 29.3072 53.3328 28.4556V25.6489C53.3328 25.1978 53.5811 24.8261 53.9978 24.6533C54.415 24.48 54.8533 24.5683 55.1722 24.8867L57.1561 26.8711C57.7406 27.4556 58.7578 27.4544 59.3411 26.8711L61.8706 24.3417C62.1622 24.05 62.3228 23.6617 62.3228 23.2489C62.3228 22.8367 62.1622 22.4489 61.8706 22.1567L59.8861 20.1728C59.5678 19.8539 59.4806 19.415 59.6528 18.9983C59.825 18.5817 60.1978 18.3333 60.6489 18.3333H63.4556C64.3072 18.3333 65 17.6406 65 16.7889V13.2111C65 12.3594 64.3072 11.6667 63.4556 11.6667ZM63.8889 16.7889C63.8889 17.0278 63.6944 17.2222 63.4556 17.2222H60.6489C59.7467 17.2222 58.9717 17.74 58.6267 18.5733C58.2811 19.4067 58.4628 20.3211 59.1011 20.9589L61.0856 22.9428C61.255 23.1122 61.255 23.3872 61.0856 23.5561L58.5561 26.0856C58.3872 26.2544 58.1122 26.2556 57.9428 26.0856L55.9589 24.1011C55.3206 23.4628 54.4067 23.2822 53.5733 23.6267C52.74 23.9717 52.2222 24.7467 52.2222 25.6489V28.4556C52.2222 28.6944 52.0278 28.8889 51.7889 28.8889H48.2111C47.9722 28.8889 47.7778 28.6944 47.7778 28.4556V25.6489C47.7778 24.7467 47.26 23.9717 46.4267 23.6267C46.1472 23.5106 45.8594 23.4539 45.575 23.4539C45.0117 23.4539 44.4656 23.6761 44.0411 24.1006L42.0572 26.085C41.8872 26.255 41.6122 26.2539 41.4439 26.085L38.9144 23.5556C38.745 23.3861 38.745 23.1111 38.9144 22.9422L40.8989 20.9583C41.5367 20.3206 41.7189 19.4061 41.3733 18.5728C41.0283 17.74 40.2533 17.2222 39.3511 17.2222H36.5444C36.3056 17.2222 36.1111 17.0278 36.1111 16.7889V13.2111C36.1111 12.9722 36.3056 12.7778 36.5444 12.7778H39.3511C40.2533 12.7778 41.0283 12.26 41.3733 11.4267C41.7189 10.5933 41.5372 9.67889 40.8989 9.04111L38.9144 7.05722C38.745 6.88778 38.745 6.61278 38.9144 6.44389L41.4439 3.91444C41.6128 3.745 41.8878 3.745 42.0572 3.91444L44.0411 5.89833C44.6783 6.53556 45.5922 6.71833 46.4267 6.37278C47.26 6.02833 47.7778 5.25333 47.7778 4.35111V1.54444C47.7778 1.30556 47.9722 1.11111 48.2111 1.11111H51.7883C52.0278 1.11111 52.2222 1.30556 52.2222 1.54444V4.35111C52.2222 5.25333 52.74 6.02833 53.5733 6.37333C54.4078 6.71889 55.3211 6.53667 55.9589 5.89889L57.9428 3.915C58.1128 3.74556 58.3878 3.74556 58.5561 3.915L61.0856 6.44444C61.255 6.61389 61.255 6.88889 61.0856 7.05778L59.1011 9.04167C58.4633 9.67944 58.2811 10.5939 58.6267 11.4272C58.9717 12.2606 59.7467 12.7783 60.6489 12.7783H63.4556C63.6944 12.7778 63.8889 12.9722 63.8889 13.2111V16.7889Z" fill="black"/>
<path d="M50 10C47.2428 10 45 12.2428 45 15C45 17.7572 47.2428 20 50 20C52.7572 20 55 17.7572 55 15C55 12.2428 52.7572 10 50 10ZM50 18.8889C47.8561 18.8889 46.1111 17.1439 46.1111 15C46.1111 12.8561 47.8561 11.1111 50 11.1111C52.1439 11.1111 53.8889 12.8561 53.8889 15C53.8889 17.1439 52.1439 18.8889 50 18.8889Z" fill="black"/>
<path d="M4.28571 21.4285C1.92268 21.4285 0 23.3511 0 25.7142C0 28.0772 1.92268 29.9999 4.28571 29.9999C6.64875 29.9999 8.57143 28.0772 8.57143 25.7142C8.57143 23.3511 6.64875 21.4285 4.28571 21.4285ZM4.28571 28.9285C2.51304 28.9285 1.07143 27.4869 1.07143 25.7142C1.07143 23.9415 2.51304 22.4999 4.28571 22.4999C6.05839 22.4999 7.5 23.9415 7.5 25.7142C7.5 27.4869 6.05839 28.9285 4.28571 28.9285Z" fill="black"/>
<path d="M15 21.4285C12.637 21.4285 10.7143 23.3511 10.7143 25.7142C10.7143 28.0772 12.637 29.9999 15 29.9999C17.363 29.9999 19.2857 28.0772 19.2857 25.7142C19.2857 23.3511 17.363 21.4285 15 21.4285ZM15 28.9285C13.2273 28.9285 11.7857 27.4869 11.7857 25.7142C11.7857 23.9415 13.2273 22.4999 15 22.4999C16.7727 22.4999 18.2143 23.9415 18.2143 25.7142C18.2143 27.4869 16.7727 28.9285 15 28.9285Z" fill="black"/>
<path d="M25.7143 21.4285C23.3513 21.4285 21.4286 23.3511 21.4286 25.7142C21.4286 28.0772 23.3513 29.9999 25.7143 29.9999C28.0773 29.9999 30 28.0772 30 25.7142C30 23.3511 28.0773 21.4285 25.7143 21.4285ZM25.7143 28.9285C23.9416 28.9285 22.5 27.4869 22.5 25.7142C22.5 23.9415 23.9416 22.4999 25.7143 22.4999C27.487 22.4999 28.9286 23.9415 28.9286 25.7142C28.9286 27.4869 27.487 28.9285 25.7143 28.9285Z" fill="black"/>
<path d="M4.28571 10.7144C1.92268 10.7144 0 12.637 0 15.0001C0 17.3631 1.92268 19.2858 4.28571 19.2858C6.64875 19.2858 8.57143 17.3631 8.57143 15.0001C8.57143 12.637 6.64875 10.7144 4.28571 10.7144ZM4.28571 18.2144C2.51304 18.2144 1.07143 16.7727 1.07143 15.0001C1.07143 13.2274 2.51304 11.7858 4.28571 11.7858C6.05839 11.7858 7.5 13.2274 7.5 15.0001C7.5 16.7727 6.05839 18.2144 4.28571 18.2144Z" fill="black"/>
<path d="M15 10.7144C12.637 10.7144 10.7143 12.637 10.7143 15.0001C10.7143 17.3631 12.637 19.2858 15 19.2858C17.363 19.2858 19.2857 17.3631 19.2857 15.0001C19.2857 12.637 17.363 10.7144 15 10.7144ZM15 18.2144C13.2273 18.2144 11.7857 16.7727 11.7857 15.0001C11.7857 13.2274 13.2273 11.7858 15 11.7858C16.7727 11.7858 18.2143 13.2274 18.2143 15.0001C18.2143 16.7727 16.7727 18.2144 15 18.2144Z" fill="black"/>
<path d="M25.7143 10.7144C23.3513 10.7144 21.4286 12.637 21.4286 15.0001C21.4286 17.3631 23.3513 19.2858 25.7143 19.2858C28.0773 19.2858 30 17.3631 30 15.0001C30 12.637 28.0773 10.7144 25.7143 10.7144ZM25.7143 18.2144C23.9416 18.2144 22.5 16.7727 22.5 15.0001C22.5 13.2274 23.9416 11.7858 25.7143 11.7858C27.487 11.7858 28.9286 13.2274 28.9286 15.0001C28.9286 16.7727 27.487 18.2144 25.7143 18.2144Z" fill="black"/>
<path d="M4.28571 0C1.92268 0 0 1.92268 0 4.28571C0 6.64875 1.92268 8.57143 4.28571 8.57143C6.64875 8.57143 8.57143 6.64875 8.57143 4.28571C8.57143 1.92268 6.64875 0 4.28571 0ZM4.28571 7.5C2.51304 7.5 1.07143 6.05839 1.07143 4.28571C1.07143 2.51304 2.51304 1.07143 4.28571 1.07143C6.05839 1.07143 7.5 2.51304 7.5 4.28571C7.5 6.05839 6.05839 7.5 4.28571 7.5Z" fill="black"/>
<path d="M15 0C12.637 0 10.7143 1.92268 10.7143 4.28571C10.7143 6.64875 12.637 8.57143 15 8.57143C17.363 8.57143 19.2857 6.64875 19.2857 4.28571C19.2857 1.92268 17.363 0 15 0ZM15 7.5C13.2273 7.5 11.7857 6.05839 11.7857 4.28571C11.7857 2.51304 13.2273 1.07143 15 1.07143C16.7727 1.07143 18.2143 2.51304 18.2143 4.28571C18.2143 6.05839 16.7727 7.5 15 7.5Z" fill="black"/>
<path d="M25.7143 8.57143C28.0773 8.57143 30 6.64875 30 4.28571C30 1.92268 28.0773 0 25.7143 0C23.3513 0 21.4286 1.92268 21.4286 4.28571C21.4286 6.64875 23.3513 8.57143 25.7143 8.57143ZM25.7143 1.07143C27.487 1.07143 28.9286 2.51304 28.9286 4.28571C28.9286 6.05839 27.487 7.5 25.7143 7.5C23.9416 7.5 22.5 6.05839 22.5 4.28571C22.5 2.51304 23.9416 1.07143 25.7143 1.07143Z" fill="black"/>
<g clip-path="url(#clip0)">
<path d="M128.712 8.71216L127.386 10.0378L131.411 14.0625H118.125V15.9375H131.411L127.386 19.9622L128.712 21.2878L135 15L128.712 8.71216Z" fill="black"/>
<path d="M127.625 28.125H108.875V1.87502H127.625V3.75004H129.5V0.93751C129.5 0.419302 129.081 0 128.563 0H107.938C107.419 0 107 0.419302 107 0.93751V29.0625C107 29.5807 107.419 30 107.938 30H128.563C129.081 30 129.5 29.5807 129.5 29.0625V26.25H127.625V28.125Z" fill="black"/>
</g>
<path d="M93.3049 4.59246C93.7047 4.59246 94.029 4.26826 94.029 3.86836V1.58361C94.029 0.710449 93.319 0 92.4461 0H77.1274C76.9354 0 76.7512 0.0763477 76.6154 0.212109L70.6168 6.21064C70.4811 6.34641 70.4047 6.53063 70.4047 6.72264V28.4163C70.4048 29.2895 71.1152 30 71.9884 30H92.4461C93.3189 30 94.0289 29.2896 94.0289 28.4164V17.3607C94.029 16.9608 93.7048 16.6366 93.3049 16.6366C92.905 16.6366 92.5808 16.9608 92.5808 17.3607V28.4164C92.5808 28.491 92.5203 28.5518 92.4462 28.5518H71.9885C71.9138 28.5518 71.853 28.491 71.853 28.4164V7.44686H76.2687C77.1416 7.44686 77.8516 6.7367 77.8516 5.86383V1.4482H92.4461C92.5203 1.4482 92.5807 1.50896 92.5807 1.58361V3.86836C92.5807 4.26826 92.905 4.59246 93.3049 4.59246ZM76.4034 5.86377C76.4034 5.93812 76.343 5.99859 76.2687 5.99859H72.8774L76.4034 2.47242V5.86377Z" fill="black"/>
<path d="M98.8788 5.88254L98.0268 5.03065C97.0715 4.07534 95.5171 4.07545 94.5617 5.03065L87.7986 11.7937H76.0679C75.668 11.7937 75.3438 12.1179 75.3438 12.5178C75.3438 12.9177 75.668 13.2419 76.0679 13.2419H86.3504L81.9923 17.6001H76.0679C75.668 17.6001 75.3438 17.9243 75.3438 18.3242C75.3438 18.7241 75.668 19.0483 76.0679 19.0483H80.544L80.5323 19.0599C80.444 19.1483 80.3801 19.2579 80.3467 19.3783L79.2282 23.4064H76.0679C75.668 23.4064 75.3438 23.7306 75.3438 24.1305C75.3438 24.5304 75.668 24.8546 76.0679 24.8546H79.7788C79.7788 24.8546 79.9375 24.8367 79.9608 24.8306C79.9646 24.8296 84.531 23.5625 84.531 23.5625C84.6513 23.5291 84.761 23.4651 84.8493 23.3768L98.8789 9.34743C99.8341 8.39223 99.8341 6.83786 98.8788 5.88254ZM80.819 23.0902L81.41 20.9617L82.9475 22.4992L80.819 23.0902ZM84.3373 21.8409L82.0685 19.5721L93.6494 7.99116L95.9183 10.26L84.3373 21.8409ZM97.8547 8.32344L96.9423 9.23581L94.6735 6.96694L95.5858 6.05458C95.9766 5.66387 96.6122 5.66393 97.0027 6.05458L97.8547 6.90659C98.2453 7.29723 98.2453 7.93286 97.8547 8.32344Z" fill="black"/>
<defs>
<clipPath id="clip0">
<rect width="30" height="30" fill="white" transform="translate(105)"/>
</clipPath>
</defs>
</svg>
