<?xml version="1.0" standalone="no"?>
<!DOCTYPE svg PUBLIC "-//W3C//DTD SVG 20010904//EN"
 "http://www.w3.org/TR/2001/REC-SVG-20010904/DTD/svg10.dtd">
<svg version="1.0" xmlns="http://www.w3.org/2000/svg"
 width="700.000000pt" height="700.000000pt" viewBox="0 0 700.000000 700.000000"
 preserveAspectRatio="xMidYMid meet">
<metadata>
Created by potrace 1.11, written by Peter Selinger 2001-2013
</metadata>
<g transform="translate(0.000000,700.000000) scale(0.100000,-0.100000)"
fill="#000000" stroke="none">
<path d="M1875 5620 c-149 -31 -268 -118 -320 -234 -20 -43 -32 -128 -79 -561
-196 -1776 -316 -2795 -341 -2895 -38 -157 -48 -247 -48 -440 0 -291 42 -511
133 -695 57 -117 118 -186 196 -222 55 -25 198 -42 352 -43 l72 0 0 -256 0
-256 151 189 c83 103 161 199 174 211 l22 24 174 -211 174 -211 3 255 2 255
1169 0 c642 0 1486 3 1874 7 l707 6 0 104 0 103 -50 0 c-27 0 -50 -4 -50 -10
0 -7 -615 -10 -1825 -10 l-1825 0 0 310 0 310 -350 0 -350 0 0 -311 0 -311
-147 4 c-140 3 -150 4 -195 30 -93 55 -168 177 -208 338 -27 109 -38 351 -21
454 39 222 127 387 239 443 36 17 132 18 2408 23 l2370 5 -383 1750 c-210 963
-387 1774 -393 1803 l-11 52 -1792 -1 c-986 -1 -1810 -5 -1832 -9z m2800 -415
c61 -30 119 -89 146 -150 21 -48 26 -87 38 -317 l9 -157 68 -63 c164 -150 174
-162 174 -206 0 -38 -7 -48 -109 -158 l-109 -118 5 -223 6 -222 -32 -66 c-39
-79 -107 -138 -184 -159 -29 -8 -97 -18 -153 -21 -140 -10 -174 8 -174 91 0
38 26 71 62 78 13 3 67 7 120 9 111 3 140 17 172 81 18 36 18 50 7 258 -7 156
-8 226 0 240 6 11 49 62 95 113 l84 93 -100 93 c-55 51 -103 102 -106 113 -2
12 -8 116 -13 232 -7 182 -10 216 -27 245 -32 55 -72 69 -197 69 -101 0 -109
2 -132 25 -38 38 -28 110 19 134 26 13 108 20 204 15 55 -2 88 -9 127 -29z
m-919 -8 c33 -39 31 -81 -5 -118 -29 -29 -31 -29 -141 -29 -194 0 -197 -4
-215 -307 -8 -124 -17 -233 -20 -243 -3 -10 -47 -55 -98 -101 -51 -45 -93 -85
-95 -88 -1 -4 36 -49 83 -101 47 -52 88 -106 92 -120 3 -14 1 -123 -6 -242
-12 -207 -12 -220 6 -249 34 -60 60 -71 189 -79 107 -8 119 -11 143 -34 34
-34 34 -86 1 -122 l-25 -26 -125 5 c-161 6 -207 22 -281 96 -87 87 -93 115
-84 380 l6 216 -105 119 c-59 66 -109 130 -113 144 -10 40 20 79 137 182 l108
94 7 136 c10 212 22 304 44 349 33 64 77 108 144 141 61 31 63 31 195 28 132
-3 134 -3 158 -31z m1044 -2452 l0 -45 -690 0 -690 0 0 45 0 45 690 0 690 0 0
-45z m-120 -200 l0 -35 -575 0 -575 0 0 35 0 35 575 0 575 0 0 -35z"/>
</g>
</svg>
