<svg width="149" height="149" fill="none" xmlns="http://www.w3.org/2000/svg">
  <g clip-path="url(#clip0)">
    <path d="M74.5 149c41 0 74.5-33.5 74.5-74.5S115.5 0 74.5 0 0 33.5 0 74.5 33.5 149 74.5 149z" fill="#F8B900"/>
    <path d="M42.6 29.2H117l16.8 76.8h-6.1l-.2 27 6.4.1v4.5H33.2c-9.5-.7-8.6-18.1-9.1-22.8l8.4-78c0-3.5 3.6-7.6 10-7.6z" fill="#303030"/>
    <path d="M42.6 29.2h7.1l-6.4 108.4-11.1-.3c-9.3-.3-10.7-22.5-7.6-30.6l8-70c0-3.4 3.6-7.5 10-7.5z" fill="#141414"/>
    <path d="M34.6 106h97.2a30.6 30.6 0 000 27.5H34.6c-10.4 0-10.4-27.6 0-27.6z" fill="#fff"/>
    <path d="M27.6 113.5h101.6l-.2.8H27.4l.2-.8zm101.1 2.9v.8H26.8l.1-.8h101.7zm-.2 2.9v.8H26.8v-.8h101.7zm.1 2.9l.1.8H27v-.8h101.6zm.4 2.9l.2.8H27.6l-.2-.8H129zm.7 2.9l.3.8H28.6l-.3-.8h101.4zm1 2.9l.3.8H30.6l-.8-.8h100.9z" fill="#ECF0F1"/>
    <path d="M39 120.2h15.2V149l-7.7-9.4L39 149v-28.8z" fill="#FF5B61"/>
    <path d="M44.8 111.7h84.8c.6-1.9 1.3-3.8 2.2-5.7H34.6c-9.6 0-10.3 23.5-2.1 27-2.8-8.1-.6-21.3 6.6-21.3h5.7z" fill="#DFE1E3"/>
    <path d="M72.8 91.6h29.3v-2H72.8v2zM75.2 95.6h24.5V94H75.2v1.6z" fill="#ECF0F1"/>
    <path d="M108.3 55.8l-4.7-4.3-.4-7.7a6.6 6.6 0 00-6.9-6.3l-3.4.2a1.9 1.9 0 00.2 3.7l3.4-.1c1.6 0 2.9 1.1 3 2.7l.3 8.5c0 .5.3 1 .7 1.3l3.8 3.5-3.5 3.9c-.4.3-.5.8-.5 1.3l.4 8.5c0 1.6-1.2 2.9-2.7 3l-3.5.1a1.9 1.9 0 00.2 3.8l3.4-.2a6.6 6.6 0 006.3-6.9l-.3-7.7 4.3-4.6c.7-.8.6-2-.1-2.7zM72 52.5l.5-8.5c0-1.5 1.4-2.7 3-2.6l3.4.1a1.9 1.9 0 00.2-3.7l-3.4-.2a6.6 6.6 0 00-7 6.3l-.4 7.7-4.7 4.2c-.7.7-.8 1.9 0 2.7l4.2 4.7-.4 7.7a6.6 6.6 0 006.2 6.9l3.5.2a1.9 1.9 0 00.2-3.8l-3.5-.2a2.8 2.8 0 01-2.7-3l.5-8.4c0-.5-.2-1-.5-1.4l-3.5-3.9 3.9-3.5c.3-.3.5-.8.6-1.3z" fill="#DFE1E3"/>
  </g>
  <defs>
    <clipPath id="clip0">
      <path fill="#fff" d="M0 0h149v149H0z"/>
    </clipPath>
  </defs>
</svg>