<svg width="694" height="701" viewBox="0 0 694 701" fill="none" xmlns="http://www.w3.org/2000/svg">
<path d="M565 0C527.01 0 491.712 16.3666 467.121 45.1664C451.303 36.7008 433.727 32.2503 415.844 32.2503C355.826 32.2503 307 81.0765 307 141.094C307 201.112 355.826 249.938 415.844 249.938H416.779C426.55 274.286 449.755 290.25 476.312 290.25C500.887 290.25 523.188 276.044 533.943 254.227C544.086 256.726 554.502 258 565 258C636.127 258 694 200.127 694 128.999C694 57.8716 636.128 0 565 0ZM564.984 241.875C553.648 241.875 542.441 240.198 531.654 236.86C527.558 235.586 523.14 237.812 521.688 241.875C514.852 261.161 496.614 274.125 476.312 274.125C454.801 274.125 436.242 260.112 430.13 239.279C429.114 235.829 424.809 233.571 421.132 233.571H420.519C418.956 233.684 417.408 233.797 415.827 233.797C364.695 233.797 323.108 192.195 323.108 141.078C323.108 89.9616 364.696 48.3591 415.828 48.3591C433.065 48.3591 449.981 53.2291 464.751 62.4362C468.266 64.629 472.878 63.8066 475.409 60.5013C497.033 32.2986 529.686 16.1255 564.984 16.1255C627.21 16.1255 677.859 66.7583 677.859 129C677.859 191.242 627.21 241.875 564.984 241.875Z" fill="white"/>
<path d="M419.875 290.25C402.089 290.25 387.624 304.714 387.624 322.5C387.624 340.286 402.089 354.751 419.875 354.751C437.661 354.751 452.125 340.286 452.125 322.5C452.125 304.714 437.661 290.25 419.875 290.25ZM419.875 338.625C410.974 338.625 403.75 331.385 403.75 322.5C403.75 313.616 410.974 306.376 419.875 306.376C428.776 306.376 435.999 313.616 435.999 322.5C435.999 331.385 428.776 338.625 419.875 338.625Z" fill="white"/>
<path d="M347.312 338.625C333.977 338.625 323.125 349.477 323.125 362.812C323.125 376.148 333.977 387 347.312 387C360.648 387 371.5 376.148 371.5 362.812C371.5 349.477 360.648 338.625 347.312 338.625ZM347.312 370.875C342.878 370.875 339.25 367.263 339.25 362.812C339.25 358.362 342.878 354.75 347.312 354.75C351.747 354.75 355.375 358.362 355.375 362.812C355.375 367.263 351.747 370.875 347.312 370.875Z" fill="white"/>
<path d="M566.032 209.492H458.145C446.546 209.492 437.143 200.089 437.143 188.49V184.462C437.143 172.863 446.546 163.46 458.145 163.46H566.032V209.492Z" fill="#FFEBB7"/>
<path d="M453.254 168.063H441.747V204.889H453.254V168.063Z" fill="#5C546A"/>
<path d="M555.1 156.556H432.54V124.333H555.1C558.595 124.333 561.429 127.167 561.429 130.663V150.226C561.429 153.722 558.595 156.556 555.1 156.556Z" fill="#FFEBB7"/>
<path d="M566.032 82.9048H448.651V117.429H566.032V82.9048Z" fill="#FFEBB7"/>
<path d="M566.095 214.095H460.222C444.993 214.095 432.603 201.706 432.603 186.476C432.603 171.246 444.993 158.857 460.222 158.857H566.095C568.637 158.857 570.698 160.918 570.698 163.46C570.698 166.002 568.637 168.063 566.095 168.063H460.222C450.07 168.063 441.81 176.324 441.81 186.476C441.81 196.629 450.07 204.889 460.222 204.889H566.095C568.637 204.889 570.698 206.95 570.698 209.492C570.698 212.034 568.637 214.095 566.095 214.095Z" fill="#00C37A"/>
<path d="M552.286 158.857H430.302C429.029 158.857 428 157.828 428 156.555C428 155.283 429.029 154.254 430.302 154.254H552.286C556.093 154.254 559.191 151.157 559.191 147.349V133.54C559.191 129.732 556.093 126.635 552.286 126.635H430.302C429.029 126.635 428 125.605 428 124.333C428 123.061 429.029 122.032 430.302 122.032H552.286C558.631 122.032 563.794 127.194 563.794 133.54V147.349C563.794 153.694 558.631 158.857 552.286 158.857Z" fill="#009BCA"/>
<path d="M566.032 94.4128H460.159C458.888 94.4128 457.858 93.3822 457.858 92.1112C457.858 90.8401 458.888 89.8096 460.159 89.8096H566.032V94.4128Z" fill="#E6BE94"/>
<path d="M566.032 103.619H460.159C458.888 103.619 457.858 102.589 457.858 101.317C457.858 100.046 458.888 99.0159 460.159 99.0159H566.032V103.619Z" fill="#E6BE94"/>
<path d="M566.032 112.825H460.159C458.888 112.825 457.858 111.795 457.858 110.524C457.858 109.253 458.888 108.222 460.159 108.222H566.032V112.825Z" fill="#E6BE94"/>
<path d="M432.54 131.238H552.223C553.494 131.238 554.524 132.269 554.524 133.54C554.524 134.811 553.494 135.841 552.223 135.841H432.54C432.54 135.841 432.54 131.238 432.54 131.238Z" fill="#E6BE94"/>
<path d="M432.54 140.444H552.223C553.494 140.444 554.524 141.475 554.524 142.746C554.524 144.017 553.494 145.048 552.223 145.048H432.54C432.54 145.048 432.54 140.444 432.54 140.444Z" fill="#E6BE94"/>
<path d="M432.54 149.651H552.223C553.494 149.651 554.524 150.681 554.524 151.952C554.524 153.223 553.494 154.254 552.223 154.254H432.54C432.54 154.254 432.54 149.651 432.54 149.651Z" fill="#E6BE94"/>
<path d="M568.397 122.032H457.921C450.306 122.032 444.111 115.837 444.111 108.222V89.8095C444.111 82.1944 450.306 76 457.921 76H568.397C570.939 76 573 78.0611 573 80.6032C573 83.1453 570.939 85.2064 568.397 85.2064H457.921C455.382 85.2064 453.317 87.2709 453.317 89.8095V108.222C453.317 110.76 455.382 112.825 457.921 112.825H568.397C570.939 112.825 573 114.886 573 117.429C573 119.971 570.939 122.032 568.397 122.032Z" fill="#FF4F19"/>
<path d="M460.159 200.286C458.887 200.286 457.858 201.315 457.858 202.587C457.858 203.86 458.887 204.889 460.159 204.889H566.032V200.286H460.159Z" fill="#E6BE94"/>
<path d="M460.159 191.079C458.887 191.079 457.858 192.109 457.858 193.381C457.858 194.653 458.887 195.683 460.159 195.683H566.032V191.079H460.159Z" fill="#E6BE94"/>
<path d="M460.159 181.873C458.887 181.873 457.858 182.902 457.858 184.175C457.858 185.447 458.887 186.476 460.159 186.476H566.032V181.873H460.159Z" fill="#E6BE94"/>
<path d="M460.159 172.667C458.887 172.667 457.858 173.696 457.858 174.968C457.858 176.241 458.887 177.27 460.159 177.27H566.032V172.667H460.159Z" fill="#E6BE94"/>
<g clip-path="url(#clip0)">
<path d="M208.951 608.825H155.047V669.197H208.951V608.825Z" fill="#FDCC9B"/>
<path d="M155.049 615.934C155.049 615.934 177.724 630.373 208.953 627.029V608.823H155.049V615.934Z" fill="#FCBC85"/>
<path d="M77.3199 545.218C91.8462 545.218 103.622 531.783 103.622 515.21C103.622 498.637 91.8462 485.201 77.3199 485.201C62.7937 485.201 51.0179 498.637 51.0179 515.21C51.0179 531.783 62.7937 545.218 77.3199 545.218Z" fill="#FCBC85"/>
<path d="M286.68 545.218C301.206 545.218 312.982 531.783 312.982 515.21C312.982 498.637 301.206 485.201 286.68 485.201C272.154 485.201 260.378 498.637 260.378 515.21C260.378 531.783 272.154 545.218 286.68 545.218Z" fill="#FCBC85"/>
<path d="M286.574 457.893C286.574 413.693 254.231 381.348 182 381.348C109.769 381.348 77.4263 413.691 77.4263 457.893C77.4263 502.094 69.8802 618.527 182 618.527C294.12 618.527 286.574 502.094 286.574 457.893Z" fill="#FDCC9B"/>
<path d="M131.065 520.421C137.317 520.421 142.385 514.87 142.385 508.023C142.385 501.176 137.317 495.625 131.065 495.625C124.813 495.625 119.745 501.176 119.745 508.023C119.745 514.87 124.813 520.421 131.065 520.421Z" fill="#3B2519"/>
<path d="M126.13 505.934C128 505.934 129.515 504.419 129.515 502.549C129.515 500.679 128 499.164 126.13 499.164C124.26 499.164 122.745 500.679 122.745 502.549C122.745 504.419 124.26 505.934 126.13 505.934Z" fill="white"/>
<path d="M112.956 477.298C118.309 479.975 126.904 468.202 146.579 478.444C150.165 480.311 152.305 462.475 131.217 462.475C112.956 462.475 109.721 475.682 112.956 477.298Z" fill="#51362A"/>
<path d="M234.333 520.421C240.585 520.421 245.653 514.87 245.653 508.023C245.653 501.176 240.585 495.625 234.333 495.625C228.081 495.625 223.013 501.176 223.013 508.023C223.013 514.87 228.081 520.421 234.333 520.421Z" fill="#3B2519"/>
<path d="M229.398 505.934C231.268 505.934 232.783 504.419 232.783 502.549C232.783 500.679 231.268 499.164 229.398 499.164C227.528 499.164 226.013 500.679 226.013 502.549C226.013 504.419 227.528 505.934 229.398 505.934Z" fill="white"/>
<path d="M251.044 477.298C245.691 479.975 237.096 468.202 217.422 478.444C213.835 480.311 211.695 462.475 232.785 462.475C251.044 462.475 254.277 475.682 251.044 477.298Z" fill="#51362A"/>
<path d="M182 551.632C170.814 551.632 164.077 543.278 164.077 547.319C164.077 551.363 167.311 559.044 182 559.044C196.689 559.044 199.923 551.363 199.923 547.319C199.923 543.276 193.184 551.632 182 551.632Z" fill="#FCBC85"/>
<path d="M182 588.803C178.131 588.803 175.8 585.913 175.8 587.312C175.8 588.712 176.919 591.367 182 591.367C187.081 591.367 188.198 588.712 188.198 587.312C188.198 585.913 185.868 588.803 182 588.803Z" fill="#FCBC85"/>
<path d="M182 578.503C164.271 578.503 153.589 571.283 153.589 573.113C153.589 574.943 158.716 582.143 182 582.143C205.284 582.143 210.411 574.943 210.411 573.113C210.409 571.283 199.729 578.503 182 578.503Z" fill="#F7945E"/>
<path d="M182 633.08V701H51.0179C51.0179 673.508 120.011 633.08 182 633.08Z" fill="#F7941E"/>
<path d="M182 633.08V701H312.982C312.982 673.508 243.989 633.08 182 633.08Z" fill="#F7941E"/>
<path d="M182 633.08C168.815 633.08 155.315 634.923 142.227 638.068C142.315 638.184 156.743 656.798 182 656.798C205.388 656.798 220.937 640.857 223.191 638.405C209.661 635.048 195.662 633.08 182 633.08Z" fill="#F36C21"/>
<path d="M155.047 635.431C155.047 635.431 162.93 645.209 181.998 645.209C201.066 645.209 208.951 635.431 208.951 635.431C208.951 635.431 180.99 625.252 155.047 635.431Z" fill="#FDCC9B"/>
<path d="M267.975 371.917C267.975 371.917 229.165 322.596 148.5 341.192C67.8374 359.787 61.7932 408.301 64.2193 455.501C66.6454 502.703 73.1132 530.393 80.7638 526.971C88.4144 523.548 84.4332 492.392 85.2419 485.201C86.0506 478.011 93.3271 445.494 142.386 450.347C191.444 455.199 232.785 437.409 232.785 437.409C232.785 437.409 249.427 458.445 260.378 462.475C282.262 470.527 275.085 524.219 283.66 524.219C292.235 524.219 334.278 400.216 267.975 371.917Z" fill="#51362A"/>
</g>
<defs>
<clipPath id="clip0">
<rect width="364" height="364" fill="white" transform="translate(0 337)"/>
</clipPath>
</defs>
</svg>
